<?xml version="1.0" encoding="utf-8"?>
<!-- Generator: Adobe Illustrator 21.0.0, SVG Export Plug-In . SVG Version: 6.00 Build 0)  -->
<svg version="1.1" id="DIECUT_please" xmlns="http://www.w3.org/2000/svg" xmlns:xlink="http://www.w3.org/1999/xlink" x="0px"
	 y="0px" viewBox="0 0 434 606" style="enable-background:new 0 0 434 606;" xml:space="preserve">
<style type="text/css">
	.st0{fill:#343434;}
	.st1{fill:#8C8C8C;}
	.st2{fill:#3C3C3B;}
	.st3{fill:#141414;}
	.st4{fill:#393939;}
	.st5{fill:#E72409;}
	.st6{fill:#FFFFFF;}
</style>
<g>
	<g>
		<g>
			<polygon class="st0" points="217,8.1 213.4,20 213.4,366.2 217,369.7 377.6,274.7 			"/>
			<polygon class="st1" points="217,8.1 56.3,274.7 217,369.7 217,201.7 			"/>
			<polygon class="st2" points="217,400.1 215,402.5 215,525.8 217,531.6 377.7,305.2 			"/>
			<polygon class="st1" points="217,531.6 217,400.1 56.3,305.2 			"/>
			<polygon class="st3" points="217,369.7 377.6,274.7 217,201.7 			"/>
			<polygon class="st4" points="56.3,274.7 217,369.7 217,201.7 			"/>
		</g>
		<path class="st5" d="M219.5,120.3c-0.1,0.1-0.1,0.1-0.2,0.2c0.1,6.3,0.2,12.3,0.2,18.1c0.1-5.7,0.2-11.8,0.2-18.1
			C219.6,120.4,219.6,120.3,219.5,120.3z"/>
		<g>
			<path d="M219.5,66c0.5,0.4,0.8,0.8,0.8,1.3c0,0.5-0.3,0.9-0.8,1.3c0.3,0.2,0.6,0.4,0.9,0.5c-0.2,15.6-0.4,32.4-0.6,48.1
				c-0.1,0.1-0.2,0.1-0.3,0.2c0.6,0.4,1,0.9,1,1.4c0,0.6-0.4,1.1-1,1.4c0.1,0.1,0.1,0.1,0.2,0.2c-0.1,6.3-0.2,12.3-0.2,18.1
				c0.2,15.1,0.4,27.9,0.5,35.6c0.7,0.5,1.2,1.1,1.2,1.7c0,0.7-0.4,1.2-1.1,1.7l0.1,4.6c0,0,2.3,1.8,2.8,2.8c0.5,1,0.5,2.7,0.1,3.4
				c-0.5,0.7-2.5,0.8-2.6,1c-0.1,0.2-0.1,1.3-0.1,1.3s8.1,3.3,8.9,4.3c0.8,1,0.6,6.2,0.5,6.6c0,0.4-2.3,3.4-2.3,3.4l-0.5,22.5
				c0,0,2.3,0.6,2.8,2.9c0.5,2.4,0,4,0,4l-0.3,1.5c8.8,4.6,14.8,13.9,14.8,24.5c0,13.1-9.1,24-21.3,26.9l0,5.3c0,0,1.2-0.1,2,0.4
				c0.7,0.5,1.4,1,1.4,1l-0.2,9.3c0,0-0.9,0.6-1.8,1c-0.9,0.4-1.5,0.4-1.5,0.4s0.5,25.3,1.1,61.2l5.9-3.5c-0.6-34-1.1-57.7-1.1-57.7
				s0.6,0,1.5-0.4c0.9-0.4,1.8-1,1.8-1l0.2-9.3c0,0-0.6-0.4-1.4-1c-0.7-0.5-2-0.4-2-0.4l0-5.3c12.2-2.9,21.3-13.9,21.3-26.9
				c0-10.7-6-19.9-14.8-24.5l0.3-1.5c0,0,0.6-1.7,0-4c-0.5-2.4-2.8-2.9-2.8-2.9l0.5-22.5c0,0,2.2-3,2.3-3.4c0-0.4,0.3-5.6-0.5-6.6
				c-0.8-1-8.9-4.3-8.9-4.3s0-1.2,0.1-1.3c0.1-0.2,2.1-0.3,2.6-1c0.5-0.7,0.5-2.4-0.1-3.4c-0.5-1-2.8-2.8-2.8-2.8l-0.1-4.6
				c0.7-0.5,1.1-1.1,1.1-1.7c0-0.7-0.4-1.3-1.2-1.7c-0.1-10.7-0.4-31-0.7-53.7c0.7-0.4,1.2-1,1.2-1.6c0-0.6-0.5-1.2-1.3-1.6
				c-0.2-15.8-0.4-32.6-0.6-48.1c1-0.4,1.7-1,1.7-1.8c0-0.7-0.7-1.4-1.8-1.8c-0.3-18.4-0.5-34.8-0.7-45.3l-2.7-4.4
				c-0.2,9.9-0.4,28.5-0.7,49.7C220.1,65.7,219.8,65.9,219.5,66z"/>
			<path d="M226.9,518.3l5.8-8.2c-0.8-37.5-1.6-80.4-2.3-117.2l-5.9,3.5C225.2,435.2,226.1,480.2,226.9,518.3z"/>
		</g>
		<path class="st6" d="M215.1,369.8l-5.9-3.5c-0.2,9.4-0.4,19.6-0.6,30.2l5.9,3.5C214.7,389.4,214.9,379.2,215.1,369.8z"/>
		<path class="st6" d="M216.2,305c0,0-0.6,0-1.5-0.4c-0.9-0.4-1.8-1-1.8-1l-0.2-9.3c0,0,0.6-0.4,1.4-1c0.7-0.5,2-0.4,2-0.4l0-5.3
			c-12.2-2.9-21.3-13.9-21.3-26.9c0-10.7,6-19.9,14.8-24.5l-0.3-1.5c0,0-0.6-1.7,0-4c0.5-2.4,2.8-2.9,2.8-2.9l-0.5-22.5
			c0,0-2.2-3-2.3-3.4c0-0.4-0.3-5.6,0.5-6.6c0.8-1,8.9-4.3,8.9-4.3s0-1.2-0.1-1.3c-0.1-0.2-2.1-0.3-2.6-1c-0.5-0.7-0.5-2.4,0.1-3.4
			c0.5-1,2.8-2.8,2.8-2.8l0.1-4.6c-0.7-0.5-1.1-1.1-1.1-1.7c0-0.7,0.4-1.3,1.2-1.7c0.1-7.8,0.3-20.5,0.5-35.6
			c-0.1-5.7-0.2-11.8-0.2-18.1c0.1,0,0.2-0.1,0.2-0.2c-0.6-0.4-1-0.9-1-1.4c0-0.6,0.4-1.1,1-1.4c-0.1-0.1-0.2-0.1-0.3-0.2
			c-0.2-15.8-0.4-32.6-0.6-48.1c0.4-0.1,0.7-0.3,0.9-0.5c-0.5-0.4-0.8-0.8-0.8-1.3c0-0.5,0.3-0.9,0.8-1.3c-0.3-0.2-0.6-0.4-1-0.5
			c-0.4-26.8-0.7-49.3-0.8-55.6l-1.2-2v0l0,0l0,0l0,0l-1.1,1.9c-0.1,6-0.5,28.7-0.8,55.7c-1.1,0.4-1.7,1-1.7,1.8
			c0,0.7,0.7,1.4,1.7,1.8c-0.2,15.6-0.4,32.4-0.6,48.1c-0.8,0.4-1.3,1-1.3,1.6c0,0.6,0.5,1.2,1.2,1.6c-0.3,22.8-0.6,43-0.7,53.7
			c-0.7,0.5-1.2,1.1-1.2,1.7c0,0.7,0.4,1.2,1.1,1.7l-0.1,4.6c0,0-2.3,1.8-2.8,2.8c-0.5,1-0.5,2.7-0.1,3.4c0.5,0.7,2.5,0.8,2.6,1
			c0.1,0.2,0.1,1.3,0.1,1.3s-8.1,3.3-8.9,4.3c-0.8,1-0.6,6.2-0.5,6.6c0,0.4,2.3,3.4,2.3,3.4l0.5,22.5c0,0-2.3,0.6-2.8,2.9
			c-0.5,2.4,0,4,0,4l0.3,1.5c-8.8,4.6-14.8,13.9-14.8,24.5c0,13.1,9.1,24,21.3,26.9l0,5.3c0,0-1.2-0.1-2,0.4c-0.7,0.5-1.4,1-1.4,1
			l0.2,9.3c0,0,0.9,0.6,1.8,1c0.9,0.4,1.5,0.4,1.5,0.4s-0.5,25.3-1.1,61.3l5.9,3.5C215.8,332,216.2,305,216.2,305z"/>
		<path class="st6" d="M214.5,400l-5.9-3.5c-0.7,38.8-1.6,83.8-2.4,122l5.8,8.2C212.8,488,213.7,440.8,214.5,400z"/>
		<path class="st6" d="M216.5,401.1l8-4.7c-0.2-10.6-0.4-20.8-0.6-30.2l-7.4,4.4v0l-1.4-0.8c-0.2,9.5-0.4,19.6-0.6,30.2L216.5,401.1
			L216.5,401.1z"/>
		<path class="st6" d="M220.5,118.9c0-0.6-0.4-1.1-1-1.4c-0.6,0.4-1,0.9-1,1.4c0,0.6,0.4,1.1,1,1.4
			C220.1,119.9,220.5,119.4,220.5,118.9z"/>
		<path class="st6" d="M220.3,67.3c0-0.5-0.3-0.9-0.8-1.3c-0.5,0.4-0.8,0.8-0.8,1.3c0,0.5,0.3,0.9,0.8,1.3
			C220,68.3,220.3,67.8,220.3,67.3z"/>
		<path class="st6" d="M216.5,370.6l7.4-4.4c-0.7-35.9-1.1-61.2-1.1-61.2s0.6,0,1.5-0.4c0.9-0.4,1.8-1,1.8-1l0.2-9.3
			c0,0-0.6-0.4-1.4-1c-0.7-0.5-2-0.4-2-0.4l0-5.3c12.2-2.9,21.3-13.9,21.3-26.9c0-10.7-6-19.9-14.8-24.5l0.3-1.5c0,0,0.6-1.7,0-4
			c-0.5-2.4-2.8-2.9-2.8-2.9l0.5-22.5c0,0,2.2-3,2.3-3.4c0-0.4,0.3-5.6-0.5-6.6c-0.8-1-8.9-4.3-8.9-4.3s0-1.2,0.1-1.3
			c0.1-0.2,2.1-0.3,2.6-1c0.5-0.7,0.5-2.4-0.1-3.4c-0.5-1-2.8-2.8-2.8-2.8l-0.1-4.6c0.7-0.5,1.1-1.1,1.1-1.7c0-0.7-0.4-1.3-1.2-1.7
			c-0.1-7.8-0.3-20.5-0.5-35.6c-0.2,15.1-0.4,27.9-0.5,35.6c-0.7,0.5-1.2,1.1-1.2,1.7c0,0.7,0.4,1.2,1.1,1.7l-0.1,4.6
			c0,0-2.3,1.8-2.8,2.8c-0.5,1-0.5,2.7-0.1,3.4c0.5,0.7,2.5,0.8,2.6,1c0.1,0.2,0.1,1.3,0.1,1.3s-8.1,3.3-8.9,4.3
			c-0.8,1-0.6,6.2-0.5,6.6c0,0.4,2.3,3.4,2.3,3.4l0.5,22.5c0,0-2.3,0.6-2.8,2.9c-0.5,2.4,0,4,0,4l0.3,1.5
			c-8.8,4.6-14.8,13.9-14.8,24.5c0,13.1,9.1,24,21.3,26.9l0,5.3c0,0-1.2-0.1-2,0.4c-0.7,0.5-1.4,1-1.4,1l0.2,9.3c0,0,0.9,0.6,1.8,1
			c0.9,0.4,1.5,0.4,1.5,0.4s-0.5,27-1.2,64.8L216.5,370.6L216.5,370.6z"/>
		<path class="st6" d="M216.5,401.1L216.5,401.1l-2-1.2c-0.8,40.9-1.7,88-2.5,126.7l4.5,6.3l0,0l10.4-14.7
			c-0.8-38.2-1.7-83.1-2.4-121.9L216.5,401.1z"/>
	</g>
	<g>
		<path d="M47.7,568.4c0,0.6-0.5,1-1.1,1H26.5c0.5,5,4.2,9.5,9.5,9.5c3.6,0,6.3-1.4,8.3-4.2c0.2-0.3,0.5-0.5,0.9-0.5
			c0.6,0,1,0.4,1,1c0,0.2-0.1,0.4-0.1,0.5c-2,3.5-6,5.3-10,5.3c-6.8,0-11.6-6-11.6-12.5s4.8-12.5,11.6-12.5
			C42.8,555.8,47.7,561.9,47.7,568.4z M45.5,567.4c-0.4-5-4.2-9.5-9.5-9.5c-5.3,0-9,4.5-9.5,9.5H45.5z"/>
		<path d="M67.8,556.3c0.6,0,1,0.5,1,1c0,0.6-0.4,1-1,1h-5.4v21.2c0,0.5-0.4,1-1,1c-0.6,0-1-0.5-1-1v-21.2h-5.2c-0.6,0-1-0.4-1-1
			c0-0.5,0.4-1,1-1h5.2v-7.8c0-0.6,0.4-1,1-1c0.6,0,1,0.4,1,1v7.8H67.8z"/>
		<path d="M96.4,566.6v12.8c0,0.6-0.5,1-1,1c-0.6,0-1-0.4-1-1v-12.8c0-4.3-2.4-8.6-7.3-8.6c-6.2,0-8.9,5.4-8.5,10.9
			c0,0.1,0.1,0.8,0.1,0.9v9.6c0,0.6-0.4,1-1,1s-1-0.4-1-1v-42.1c0-0.5,0.4-1,1-1s1,0.5,1,1v23.8c1.7-3.1,4.8-5.2,8.4-5.2
			C93,555.9,96.4,561.1,96.4,566.6z"/>
		<path d="M128.1,568.4c0,0.6-0.5,1-1.1,1H107c0.5,5,4.2,9.5,9.5,9.5c3.6,0,6.3-1.4,8.3-4.2c0.2-0.3,0.5-0.5,0.9-0.5
			c0.6,0,1,0.4,1,1c0,0.2-0.1,0.4-0.1,0.5c-2,3.5-6,5.3-10,5.3c-6.8,0-11.6-6-11.6-12.5s4.8-12.5,11.6-12.5
			C123.2,555.8,128.1,561.9,128.1,568.4z M126,567.4c-0.4-5-4.2-9.5-9.5-9.5c-5.3,0-9,4.5-9.5,9.5H126z"/>
		<path d="M148.5,557.3c0,0.6-0.4,1-0.9,1.1c-5.9,0.9-8.6,5.7-8.6,11.3v9.6c0,0.6-0.4,1-1,1s-1-0.4-1-1v-22c0-0.6,0.4-1,1-1
			s1,0.4,1,1v4.5c1.7-2.8,5-5.5,8.4-5.5C147.9,556.3,148.5,556.7,148.5,557.3z"/>
		<path d="M177.2,568.4c0,0.6-0.5,1-1.1,1h-20.1c0.5,5,4.2,9.5,9.5,9.5c3.6,0,6.3-1.4,8.3-4.2c0.2-0.3,0.5-0.5,0.9-0.5
			c0.6,0,1,0.4,1,1c0,0.2-0.1,0.4-0.1,0.5c-2,3.5-6,5.3-10,5.3c-6.8,0-11.6-6-11.6-12.5s4.8-12.5,11.6-12.5
			C172.3,555.8,177.2,561.9,177.2,568.4z M175.1,567.4c-0.4-5-4.2-9.5-9.5-9.5c-5.3,0-9,4.5-9.5,9.5H175.1z"/>
		<path d="M205.4,557.5v7v15c0,0.6-0.5,1-1,1c-0.6,0-1-0.4-1-1v-4.2c-1.7,3.3-4.6,5.7-8.4,5.7c-6,0-9.3-5.2-9.3-10.7v-12.9
			c0-0.5,0.4-1,1-1c0.6,0,1,0.5,1,1v12.9c0,4.3,2.4,8.6,7.3,8.6c6.8,0,8.4-6.3,8.4-13.3v-8.2c0-0.5,0.4-1,1-1
			C204.9,556.5,205.4,557,205.4,557.5z"/>
		<path d="M252,566.5v12.9c0,0.6-0.5,1-1,1c-0.6,0-1-0.4-1-1v-12.9c0-4.3-2.4-8.6-7.3-8.6c-6,0-8.4,6.5-8.4,11.5v9.9
			c0,0.6-0.5,1-1,1c-0.6,0-1-0.4-1-1v-12.9c0-4.3-2.4-8.6-7.3-8.6c-6.1,0-8.6,4.8-8.4,11.2c0,0.1,0.1,0.4,0,0.5v9.7c0,0.6-0.4,1-1,1
			s-1-0.4-1-1v-22c0-0.6,0.4-1,1-1s1,0.4,1,1v3.7c1.7-3.1,4.8-5.1,8.4-5.1c4.1,0,7.3,2.6,8.6,6.4c1.7-3.7,4.9-6.4,9.1-6.4
			C248.6,555.9,252,561,252,566.5z"/>
		<path d="M305.2,568.5c0,6.6-4.8,12.5-11.6,12.5c-4.3,0-8.1-2.5-10.1-6.3v4.7c0,0.5-0.4,1-1,1s-1-0.5-1-1v-42.2c0-0.5,0.4-1,1-1
			s1,0.5,1,1v25.1c2-3.7,5.8-6.3,10.1-6.3C300.3,556,305.2,562,305.2,568.5z M303.1,568.5c0-5.3-4-10.5-9.6-10.5
			c-5.7,0-9.6,5.2-9.6,10.5c0,5.4,4,10.5,9.6,10.5C299.2,579,303.1,573.9,303.1,568.5z"/>
		<path d="M336.9,568.4c0,0.6-0.5,1-1.1,1h-20.1c0.5,5,4.2,9.5,9.5,9.5c3.6,0,6.3-1.4,8.3-4.2c0.2-0.3,0.5-0.5,0.9-0.5
			c0.6,0,1,0.4,1,1c0,0.2-0.1,0.4-0.1,0.5c-2,3.5-6,5.3-10,5.3c-6.8,0-11.6-6-11.6-12.5s4.8-12.5,11.6-12.5S336.9,561.9,336.9,568.4
			z M334.8,567.4c-0.4-5-4.2-9.5-9.5-9.5c-5.3,0-9,4.5-9.5,9.5H334.8z"/>
		<path d="M357.3,557.3c0,0.6-0.4,1-0.9,1.1c-5.9,0.9-8.6,5.7-8.6,11.3v9.6c0,0.6-0.4,1-1,1s-1-0.4-1-1v-22c0-0.6,0.4-1,1-1
			s1,0.4,1,1v4.5c1.7-2.8,5-5.5,8.4-5.5C356.7,556.3,357.3,556.7,357.3,557.3z"/>
		<path d="M368.2,537.3v42.2c0,0.5-0.4,1-1,1s-1-0.5-1-1v-42.2c0-0.5,0.4-1,1-1S368.2,536.8,368.2,537.3z"/>
		<path d="M379,551c-0.9,0-1.7-0.7-1.7-1.6c0-0.9,0.7-1.7,1.7-1.7c0.9,0,1.7,0.7,1.7,1.7C380.7,550.3,379.9,551,379,551z M380,557.5
			v21.9c0,0.5-0.5,1-1,1c-0.6,0-1-0.5-1-1v-21.9c0-0.5,0.4-1,1-1C379.5,556.5,380,557,380,557.5z"/>
		<path d="M409.6,566.4v12.8c0,0.6-0.5,1-1,1c-0.6,0-1-0.4-1-1v-12.8c0-4.4-2.4-8.6-7.3-8.6c-6,0-8.4,5.4-8.4,11.4v10.1
			c0,0.6-0.4,1-1,1s-1-0.4-1-1v-22c0-0.6,0.4-1,1-1s1,0.4,1,1v3.5c1.8-3,4.8-5,8.4-5C406.2,555.8,409.6,560.9,409.6,566.4z"/>
	</g>
</g>
</svg>
